<?xml version="1.0" encoding="UTF-8" standalone="no"?>
<!DOCTYPE svg PUBLIC "-//W3C//DTD SVG 1.1//EN"
 "http://www.w3.org/Graphics/SVG/1.1/DTD/svg11.dtd">
<!-- Generated by graphviz version 12.2.1 (0)
 -->
<!-- Title: G Pages: 1 -->
<svg width="437pt" height="100pt"
 viewBox="0.00 0.00 437.20 100.00" xmlns="http://www.w3.org/2000/svg" xmlns:xlink="http://www.w3.org/1999/xlink">
<g id="graph0" class="graph" transform="scale(1 1) rotate(0) translate(4 96)">
<title>G</title>
<polygon fill="#4a4a4a" stroke="none" points="-4,4 -4,-96 433.2,-96 433.2,4 -4,4"/>
<!-- n_0 -->
<g id="node1" class="node">
<title>n_0</title>
<ellipse fill="white" stroke="white" cx="175.55" cy="-69.5" rx="1.8" ry="1.8"/>
<text text-anchor="middle" x="158.75" y="-54.4" font-family="Times,serif" font-size="14.00" fill="white">bool</text>
</g>
<!-- e_1 -->
<g id="node5" class="node">
<title>e_1</title>
<path fill="none" stroke="white" d="M225.35,-28.25C225.35,-28.25 287.6,-28.25 287.6,-28.25 293.6,-28.25 299.6,-34.25 299.6,-40.25 299.6,-40.25 299.6,-66.75 299.6,-66.75 299.6,-72.75 293.6,-78.75 287.6,-78.75 287.6,-78.75 225.35,-78.75 225.35,-78.75 219.35,-78.75 213.35,-72.75 213.35,-66.75 213.35,-66.75 213.35,-40.25 213.35,-40.25 213.35,-34.25 219.35,-28.25 225.35,-28.25"/>
<text text-anchor="middle" x="223.6" y="-61.45" font-family="Times,serif" font-size="14.00" fill="white"> </text>
<polyline fill="none" stroke="white" points="213.35,-53.5 233.85,-53.5"/>
<text text-anchor="middle" x="223.6" y="-36.2" font-family="Times,serif" font-size="14.00" fill="white"> </text>
<polyline fill="none" stroke="white" points="233.85,-28.25 233.85,-78.75"/>
<text text-anchor="middle" x="256.48" y="-48.83" font-family="Times,serif" font-size="14.00" fill="white">eval</text>
<polyline fill="none" stroke="white" points="279.1,-28.25 279.1,-78.75"/>
<text text-anchor="middle" x="289.35" y="-48.95" font-family="Times,serif" font-size="14.00" fill="white"> </text>
</g>
<!-- n_0&#45;&gt;e_1 -->
<g id="edge4" class="edge">
<title>n_0&#45;&gt;e_1:s_0</title>
<path fill="none" stroke="white" d="M177.69,-69.32C182.2,-68.62 199.24,-66.12 213.35,-66.12"/>
</g>
<!-- n_1 -->
<g id="node2" class="node">
<title>n_1</title>
<ellipse fill="white" stroke="white" cx="175.55" cy="-33.5" rx="1.8" ry="1.8"/>
<text text-anchor="middle" x="134.6" y="-39.25" font-family="Times,serif" font-size="14.00" fill="white">bool &#45;&gt; bool</text>
</g>
<!-- n_1&#45;&gt;e_1 -->
<g id="edge5" class="edge">
<title>n_1&#45;&gt;e_1:s_1</title>
<path fill="none" stroke="white" d="M177.68,-33.9C182.14,-35.43 199.01,-40.88 213.35,-40.88"/>
</g>
<!-- n_2 -->
<g id="node3" class="node">
<title>n_2</title>
<ellipse fill="white" stroke="white" cx="337.4" cy="-53.5" rx="1.8" ry="1.8"/>
<text text-anchor="middle" x="320.6" y="-38.4" font-family="Times,serif" font-size="14.00" fill="white">bool</text>
</g>
<!-- targets -->
<g id="node7" class="node">
<title>targets</title>
</g>
<!-- n_2&#45;&gt;targets -->
<g id="edge2" class="edge">
<title>n_2&#45;&gt;targets:p_0</title>
<path fill="none" stroke="white" stroke-dasharray="5,2" d="M339.54,-53.52C344.07,-53.6 361.14,-53.88 375.2,-53.88"/>
</g>
<!-- e_0 -->
<g id="node4" class="node">
<title>e_0</title>
<path fill="none" stroke="white" d="M12,-0.5C12,-0.5 125.75,-0.5 125.75,-0.5 131.75,-0.5 137.75,-6.5 137.75,-12.5 137.75,-12.5 137.75,-24.5 137.75,-24.5 137.75,-30.5 131.75,-36.5 125.75,-36.5 125.75,-36.5 12,-36.5 12,-36.5 6,-36.5 0,-30.5 0,-24.5 0,-24.5 0,-12.5 0,-12.5 0,-6.5 6,-0.5 12,-0.5"/>
<text text-anchor="middle" x="58.62" y="-14.2" font-family="Times,serif" font-size="14.00" fill="white">name.bool.not</text>
<polyline fill="none" stroke="white" points="117.25,-1.25 117.25,-36.5"/>
<text text-anchor="middle" x="127.5" y="-14.2" font-family="Times,serif" font-size="14.00" fill="white"> </text>
</g>
<!-- e_0&#45;&gt;n_1 -->
<g id="edge3" class="edge">
<title>e_0:t_0&#45;&gt;n_1</title>
<path fill="none" stroke="white" d="M137.75,-18.88C152.87,-18.88 169.18,-29.68 173.47,-32.71"/>
</g>
<!-- e_1&#45;&gt;n_2 -->
<g id="edge6" class="edge">
<title>e_1:t_0&#45;&gt;n_2</title>
<path fill="none" stroke="white" d="M299.6,-53.62C313.66,-53.62 330.73,-53.53 335.26,-53.51"/>
</g>
<!-- sources -->
<g id="node6" class="node">
<title>sources</title>
</g>
<!-- sources&#45;&gt;n_0 -->
<g id="edge1" class="edge">
<title>sources:p_0&#45;&gt;n_0</title>
<path fill="none" stroke="white" stroke-dasharray="5,2" d="M96.88,-73.88C128.21,-73.88 166.54,-70.28 173.46,-69.61"/>
</g>
</g>
</svg>
