<?xml version="1.0" encoding="UTF-8" standalone="no"?>
<!DOCTYPE svg PUBLIC "-//W3C//DTD SVG 1.1//EN"
 "http://www.w3.org/Graphics/SVG/1.1/DTD/svg11.dtd">
<!-- Generated by graphviz version 12.2.1 (0)
 -->
<!-- Title: G Pages: 1 -->
<svg width="798pt" height="101pt"
 viewBox="0.00 0.00 797.65 100.55" xmlns="http://www.w3.org/2000/svg" xmlns:xlink="http://www.w3.org/1999/xlink">
<g id="graph0" class="graph" transform="scale(1 1) rotate(0) translate(4 96.55)">
<title>G</title>
<polygon fill="#4a4a4a" stroke="none" points="-4,4 -4,-96.55 793.65,-96.55 793.65,4 -4,4"/>
<!-- n_0 -->
<g id="node1" class="node">
<title>n_0</title>
<ellipse fill="white" stroke="white" cx="175.55" cy="-74.05" rx="1.8" ry="1.8"/>
<text text-anchor="middle" x="158.75" y="-58.95" font-family="Times,serif" font-size="14.00" fill="white">bool</text>
</g>
<!-- e_0 -->
<g id="node7" class="node">
<title>e_0</title>
<path fill="none" stroke="white" d="M225.35,-56.05C225.35,-56.05 295.85,-56.05 295.85,-56.05 301.85,-56.05 307.85,-62.05 307.85,-68.05 307.85,-68.05 307.85,-80.05 307.85,-80.05 307.85,-86.05 301.85,-92.05 295.85,-92.05 295.85,-92.05 225.35,-92.05 225.35,-92.05 219.35,-92.05 213.35,-86.05 213.35,-80.05 213.35,-80.05 213.35,-68.05 213.35,-68.05 213.35,-62.05 219.35,-56.05 225.35,-56.05"/>
<text text-anchor="middle" x="223.6" y="-69.75" font-family="Times,serif" font-size="14.00" fill="white"> </text>
<polyline fill="none" stroke="white" points="233.85,-56.8 233.85,-92.05"/>
<text text-anchor="middle" x="260.6" y="-69.75" font-family="Times,serif" font-size="14.00" fill="white">defer</text>
<polyline fill="none" stroke="white" points="287.35,-56.8 287.35,-92.05"/>
<text text-anchor="middle" x="297.6" y="-69.75" font-family="Times,serif" font-size="14.00" fill="white"> </text>
</g>
<!-- n_0&#45;&gt;e_0 -->
<g id="edge3" class="edge">
<title>n_0&#45;&gt;e_0:s_0</title>
<path fill="none" stroke="white" d="M177.69,-74.07C182.22,-74.15 199.29,-74.42 213.35,-74.42"/>
</g>
<!-- n_1 -->
<g id="node2" class="node">
<title>n_1</title>
<ellipse fill="white" stroke="white" cx="345.65" cy="-70.05" rx="1.8" ry="1.8"/>
<text text-anchor="middle" x="383.45" y="-75.8" font-family="Times,serif" font-size="14.00" fill="white">1 =&gt; bool</text>
</g>
<!-- e_3 -->
<g id="node10" class="node">
<title>e_3</title>
<path fill="none" stroke="white" d="M395.45,-28.8C395.45,-28.8 490.7,-28.8 490.7,-28.8 496.7,-28.8 502.7,-34.8 502.7,-40.8 502.7,-40.8 502.7,-67.3 502.7,-67.3 502.7,-73.3 496.7,-79.3 490.7,-79.3 490.7,-79.3 395.45,-79.3 395.45,-79.3 389.45,-79.3 383.45,-73.3 383.45,-67.3 383.45,-67.3 383.45,-40.8 383.45,-40.8 383.45,-34.8 389.45,-28.8 395.45,-28.8"/>
<text text-anchor="middle" x="393.7" y="-62" font-family="Times,serif" font-size="14.00" fill="white"> </text>
<polyline fill="none" stroke="white" points="383.45,-54.05 403.95,-54.05"/>
<text text-anchor="middle" x="393.7" y="-36.75" font-family="Times,serif" font-size="14.00" fill="white"> </text>
<polyline fill="none" stroke="white" points="403.95,-28.8 403.95,-79.3"/>
<text text-anchor="middle" x="443.07" y="-49.38" font-family="Times,serif" font-size="14.00" fill="white">compose</text>
<polyline fill="none" stroke="white" points="482.2,-28.8 482.2,-79.3"/>
<text text-anchor="middle" x="492.45" y="-49.5" font-family="Times,serif" font-size="14.00" fill="white"> </text>
</g>
<!-- n_1&#45;&gt;e_3 -->
<g id="edge8" class="edge">
<title>n_1&#45;&gt;e_3:s_0</title>
<path fill="none" stroke="white" d="M347.79,-69.87C352.3,-69.17 369.34,-66.67 383.45,-66.67"/>
</g>
<!-- n_2 -->
<g id="node3" class="node">
<title>n_2</title>
<ellipse fill="white" stroke="white" cx="175.55" cy="-19.05" rx="1.8" ry="1.8"/>
<text text-anchor="middle" x="220.1" y="-3.95" font-family="Times,serif" font-size="14.00" fill="white">bool &#45;&gt; bool</text>
</g>
<!-- e_2 -->
<g id="node9" class="node">
<title>e_2</title>
<path fill="none" stroke="white" d="M233.97,-1.05C233.97,-1.05 287.22,-1.05 287.22,-1.05 293.22,-1.05 299.22,-7.05 299.22,-13.05 299.22,-13.05 299.22,-25.05 299.22,-25.05 299.22,-31.05 293.22,-37.05 287.22,-37.05 287.22,-37.05 233.97,-37.05 233.97,-37.05 227.97,-37.05 221.97,-31.05 221.97,-25.05 221.97,-25.05 221.97,-13.05 221.97,-13.05 221.97,-7.05 227.97,-1.05 233.97,-1.05"/>
<text text-anchor="middle" x="232.22" y="-14.75" font-family="Times,serif" font-size="14.00" fill="white"> </text>
<polyline fill="none" stroke="white" points="242.47,-1.8 242.47,-37.05"/>
<text text-anchor="middle" x="260.6" y="-14.75" font-family="Times,serif" font-size="14.00" fill="white">lift</text>
<polyline fill="none" stroke="white" points="278.72,-1.8 278.72,-37.05"/>
<text text-anchor="middle" x="288.97" y="-14.75" font-family="Times,serif" font-size="14.00" fill="white"> </text>
</g>
<!-- n_2&#45;&gt;e_2 -->
<g id="edge6" class="edge">
<title>n_2&#45;&gt;e_2:s_0</title>
<path fill="none" stroke="white" d="M177.65,-19.07C182.64,-19.14 203.7,-19.42 220.97,-19.42"/>
</g>
<!-- n_3 -->
<g id="node4" class="node">
<title>n_3</title>
<ellipse fill="white" stroke="white" cx="345.65" cy="-34.05" rx="1.8" ry="1.8"/>
<text text-anchor="middle" x="300.95" y="-39.8" font-family="Times,serif" font-size="14.00" fill="white">bool =&gt; bool</text>
</g>
<!-- n_3&#45;&gt;e_3 -->
<g id="edge9" class="edge">
<title>n_3&#45;&gt;e_3:s_1</title>
<path fill="none" stroke="white" d="M347.78,-34.45C352.24,-35.98 369.11,-41.42 383.45,-41.42"/>
</g>
<!-- n_4 -->
<g id="node5" class="node">
<title>n_4</title>
<ellipse fill="white" stroke="white" cx="540.5" cy="-54.05" rx="1.8" ry="1.8"/>
<text text-anchor="middle" x="506.3" y="-38.95" font-family="Times,serif" font-size="14.00" fill="white">1 =&gt; bool</text>
</g>
<!-- e_4 -->
<g id="node11" class="node">
<title>e_4</title>
<path fill="none" stroke="white" d="M590.3,-36.05C590.3,-36.05 648.05,-36.05 648.05,-36.05 654.05,-36.05 660.05,-42.05 660.05,-48.05 660.05,-48.05 660.05,-60.05 660.05,-60.05 660.05,-66.05 654.05,-72.05 648.05,-72.05 648.05,-72.05 590.3,-72.05 590.3,-72.05 584.3,-72.05 578.3,-66.05 578.3,-60.05 578.3,-60.05 578.3,-48.05 578.3,-48.05 578.3,-42.05 584.3,-36.05 590.3,-36.05"/>
<text text-anchor="middle" x="588.55" y="-49.75" font-family="Times,serif" font-size="14.00" fill="white"> </text>
<polyline fill="none" stroke="white" points="598.8,-36.8 598.8,-72.05"/>
<text text-anchor="middle" x="619.17" y="-49.75" font-family="Times,serif" font-size="14.00" fill="white">run</text>
<polyline fill="none" stroke="white" points="639.55,-36.8 639.55,-72.05"/>
<text text-anchor="middle" x="649.8" y="-49.75" font-family="Times,serif" font-size="14.00" fill="white"> </text>
</g>
<!-- n_4&#45;&gt;e_4 -->
<g id="edge11" class="edge">
<title>n_4&#45;&gt;e_4:s_0</title>
<path fill="none" stroke="white" d="M542.64,-54.07C547.17,-54.15 564.24,-54.42 578.3,-54.42"/>
</g>
<!-- n_5 -->
<g id="node6" class="node">
<title>n_5</title>
<ellipse fill="white" stroke="white" cx="697.85" cy="-54.05" rx="1.8" ry="1.8"/>
<text text-anchor="middle" x="681.05" y="-38.95" font-family="Times,serif" font-size="14.00" fill="white">bool</text>
</g>
<!-- targets -->
<g id="node13" class="node">
<title>targets</title>
</g>
<!-- n_5&#45;&gt;targets -->
<g id="edge2" class="edge">
<title>n_5&#45;&gt;targets:p_0</title>
<path fill="none" stroke="white" stroke-dasharray="5,2" d="M699.99,-54.07C704.52,-54.15 721.59,-54.42 735.65,-54.42"/>
</g>
<!-- e_0&#45;&gt;n_1 -->
<g id="edge4" class="edge">
<title>e_0:t_0&#45;&gt;n_1</title>
<path fill="none" stroke="white" d="M307.85,-74.42C322,-74.42 339.01,-71.19 343.51,-70.29"/>
</g>
<!-- e_1 -->
<g id="node8" class="node">
<title>e_1</title>
<path fill="none" stroke="white" d="M12,-1.05C12,-1.05 125.75,-1.05 125.75,-1.05 131.75,-1.05 137.75,-7.05 137.75,-13.05 137.75,-13.05 137.75,-25.05 137.75,-25.05 137.75,-31.05 131.75,-37.05 125.75,-37.05 125.75,-37.05 12,-37.05 12,-37.05 6,-37.05 0,-31.05 0,-25.05 0,-25.05 0,-13.05 0,-13.05 0,-7.05 6,-1.05 12,-1.05"/>
<text text-anchor="middle" x="58.62" y="-14.75" font-family="Times,serif" font-size="14.00" fill="white">name.bool.not</text>
<polyline fill="none" stroke="white" points="117.25,-1.8 117.25,-37.05"/>
<text text-anchor="middle" x="127.5" y="-14.75" font-family="Times,serif" font-size="14.00" fill="white"> </text>
</g>
<!-- e_1&#45;&gt;n_2 -->
<g id="edge5" class="edge">
<title>e_1:t_0&#45;&gt;n_2</title>
<path fill="none" stroke="white" d="M137.75,-19.42C151.81,-19.42 168.88,-19.15 173.41,-19.07"/>
</g>
<!-- e_2&#45;&gt;n_3 -->
<g id="edge7" class="edge">
<title>e_2:t_0&#45;&gt;n_3</title>
<path fill="none" stroke="white" d="M300.22,-19.42C318.41,-19.42 338.79,-30.62 343.59,-33.42"/>
</g>
<!-- e_3&#45;&gt;n_4 -->
<g id="edge10" class="edge">
<title>e_3:t_0&#45;&gt;n_4</title>
<path fill="none" stroke="white" d="M502.7,-54.17C516.76,-54.17 533.83,-54.08 538.36,-54.06"/>
</g>
<!-- e_4&#45;&gt;n_5 -->
<g id="edge12" class="edge">
<title>e_4:t_0&#45;&gt;n_5</title>
<path fill="none" stroke="white" d="M660.05,-54.42C674.11,-54.42 691.18,-54.15 695.71,-54.07"/>
</g>
<!-- sources -->
<g id="node12" class="node">
<title>sources</title>
</g>
<!-- sources&#45;&gt;n_0 -->
<g id="edge1" class="edge">
<title>sources:p_0&#45;&gt;n_0</title>
<path fill="none" stroke="white" stroke-dasharray="5,2" d="M96.88,-74.42C128.16,-74.42 166.53,-74.12 173.45,-74.06"/>
</g>
</g>
</svg>
